<?xml version="1.0" encoding="utf-8" ?><svg xmlns="http://www.w3.org/2000/svg" xmlns:xlink="http://www.w3.org/1999/xlink" width="1280" height="800" viewBox="0 0 1280 800"><path fill="white" d="M590.312 203.399C639.542 200.881 709.99 207.059 708.228 273.281C707.62 296.131 697.643 314.57 684.894 333.005C728.749 334.438 773.268 331.745 817.115 334.908C825.695 335.527 830.661 348.828 819.477 349.186C802.41 349.732 785.211 349.533 768.125 349.399L673.2 348.716C658.782 367.804 640.917 385.386 624.252 402.59C629.186 402.396 634.42 401.999 639.341 401.576C746.984 392.307 854.038 392.404 961.943 392.616L1019.48 393.007C1027.84 393.115 1046.91 392.193 1055.34 395.444C1056.59 395.929 1057.01 397.49 1057.32 398.751C1056.75 401.98 1053.3 405.522 1050.05 405.51C1042.89 405.482 1035.74 405.454 1028.56 405.501L973.403 405.716C907.466 405.801 842.732 406.001 776.775 408.071C719.427 409.871 665.017 414.224 608.066 418.53C548.148 477.098 483.702 524.421 406.726 557.909C394.349 563.372 381.26 568.144 368.542 572.611C321.582 589.109 272.359 601.082 223.032 607.898C203.876 610.692 158.841 613.454 157.782 584.838C156.448 548.795 220.162 511.596 247.227 497.297C356.641 439.493 479.785 417.079 601.599 405.339C607.236 401.046 613.112 394.785 618.283 389.825C631.831 376.83 644.001 363.128 656.434 349.092C630.051 348.896 599.263 347.791 573.215 349.858C579.225 351.814 588.502 351.762 592.634 355.973C593.4 357.784 593.334 358.083 593.082 360.05C587.51 370.229 544.579 353.781 541.667 342.889C542.641 336.869 549.853 335.732 555.102 335.096C570.322 333.253 585.961 333.435 601.295 333.37L669.257 333.134C675.783 323.356 682.6 313.916 687.75 303.29C695.008 288.316 698.083 268.576 692.372 252.501C687.845 239.761 676.662 230.703 664.805 224.995C632.593 209.489 559.085 216.371 526.211 227.905C519.974 230.093 510.319 233.451 507.308 239.697C506.756 245.983 518.399 254.163 516.125 260.897C510.317 265.476 502.536 256.538 499.412 252.43C482.129 229.699 512.825 218.529 529.761 213.695C549.886 207.951 569.743 204.698 590.312 203.399ZM179.678 593.844C199.803 598.669 230.767 592.942 251.116 589.173C328.28 574.88 406.574 549.408 473.67 508.012C505.329 488.479 538.078 464.258 565.992 439.568C571.433 434.755 580.359 427.248 585.033 421.853C582.449 421.968 579.431 422.024 576.894 422.231C464.548 432.225 342.364 462.234 242.525 515.158C228.233 522.734 142.891 576.48 179.678 593.844Z"/></svg>